<svg fill="#FFFFFF" xmlns="http://www.w3.org/2000/svg"  viewBox="0 0 64 64" width="48px" height="48px" baseProfile="basic"><path d="M51,46c1.104,0,2,0.895,2,2c0,1.105-0.896,2-2,2c-0.601,0-37.399,0-38,0c-1.104,0-2-0.895-2-2c0-1.105,0.896-2,2-2	C13.601,46,50.399,46,51,46z"/><path d="M51,30c1.104,0,2,0.895,2,2c0,1.105-0.896,2-2,2c-0.601,0-37.399,0-38,0c-1.104,0-2-0.895-2-2c0-1.105,0.896-2,2-2	C13.601,30,50.399,30,51,30z"/><path d="M51,14c1.104,0,2,0.895,2,2c0,1.105-0.896,2-2,2c-0.601,0-37.399,0-38,0c-1.104,0-2-0.895-2-2c0-1.105,0.896-2,2-2	C13.601,14,50.399,14,51,14z"/></svg>